<svg viewBox="0 0 100 100" xmlns="http://www.w3.org/2000/svg" style="display: none;">

  <symbol viewBox="0 0 523 523" id="shape-logo">
    <path d="M170.8,265.1c0-56.7,43.7-98.1,98.7-98.1c34.7,0,59.5,12.4,76.7,39.2L316,227.6c-9-14.7-24.5-25.1-46.5-25.1
      c-34.7,0-58.1,26.8-58.1,62.6s23.4,63.2,58.1,63.2c24.8,0,38.6-11.8,49.3-28.2l30.7,21.1c-16.6,25.9-43.1,42.3-80.1,42.3
      C214.5,363.5,170.8,321.8,170.8,265.1z"/>
    <path d="M394.9,92.7h16c8.8,0,16.1,4.1,16.1,14.2c0,6.5-3.4,10.7-8.5,12.6l9.8,16.3h-10.2l-8.8-15h-5.7v15h-8.9V92.7z
       M410.7,113.4c4.4,0,7.2-1.7,7.2-6.5c0-4.8-2.9-6.4-7.2-6.4h-6.9v12.9H410.7z"/>
    <path d="M523,523H0V0h523V523z M46,477h431V46H46V477z"/>
  </symbol>

  <symbol viewBox="0 0 81.3 783.1" id="shape-arrow">
    <polygon points="40.6,783.1 0,738.1 9.7,729.4 32.4,754.6 32.4,0 48.9,0 48.9,754.6 71.7,729.3 81.3,738 "/>
  </symbol>

  <symbol viewBox="0 0 604.3 604.3" id="shape-cross">
    <polygon points="604.3,24.2 580.1,0 302.2,277.9 24.2,0 0,24.2 277.9,302.2 0,580.1 24.2,604.3 302.2,326.4 580.1,604.3
      604.3,580.1 326.4,302.2 "/>
  </symbol>

</svg>
